<svg width="500" height="500" xmlns="http://www.w3.org/2000/svg" xmlns:xlink="http://www.w3.org/1999/xlink">
 <style> .axisLabel {font: bold 20px sans-serif;} </style>
 <rect x="10" y="10" rx="10" ry="10" width="480" height="480" style="fill:rgb(232,232,232);stroke-width:2;stroke:rgb(0,0,0)"/>
 <line x1="20" x2="480" y1="250" y2="250" stroke="black" stroke-width="4"/>
<line x1="480" x2="480" y1="240" y2="260" stroke="black" stroke-width="2"/>
<text x="475" y="285" class="axisLabel">30</text>
<line x1="422.5" x2="422.5" y1="240" y2="260" stroke="black" stroke-width="2"/>
<text x="417.5" y="285" class="axisLabel">25</text>
<line x1="365" x2="365" y1="240" y2="260" stroke="black" stroke-width="2"/>
<text x="360" y="285" class="axisLabel">20</text>
<line x1="307.5" x2="307.5" y1="240" y2="260" stroke="black" stroke-width="2"/>
<text x="302.5" y="285" class="axisLabel">15</text>
<line x1="250" x2="250" y1="240" y2="260" stroke="black" stroke-width="2"/>
<text x="245" y="285" class="axisLabel">10</text>
<line x1="192.5" x2="192.5" y1="240" y2="260" stroke="black" stroke-width="2"/>
<text x="187.5" y="285" class="axisLabel">5</text>
<line x1="135" x2="135" y1="20" y2="480" stroke="black" stroke-width="4"/>
<line x1="77.5" x2="77.5" y1="240" y2="260" stroke="black" stroke-width="2"/>
<text x="72.5" y="285" class="axisLabel">-5</text>
<line x1="20" x2="20" y1="240" y2="260" stroke="black" stroke-width="2"/>
<text x="15" y="285" class="axisLabel">-10</text>
<line x1="125" x2="145" y1="480" y2="480" stroke="black" stroke-width="2"/>
<text x="170" y="485" class="axisLabel">-20</text>
<line x1="125" x2="145" y1="422.5" y2="422.5" stroke="black" stroke-width="2"/>
<text x="170" y="427.5" class="axisLabel">-15</text>
<line x1="125" x2="145" y1="365" y2="365" stroke="black" stroke-width="2"/>
<text x="170" y="370" class="axisLabel">-10</text>
<line x1="125" x2="145" y1="307.5" y2="307.5" stroke="black" stroke-width="2"/>
<text x="170" y="312.5" class="axisLabel">-5</text>
<line x1="125" x2="145" y1="192.5" y2="192.5" stroke="black" stroke-width="2"/>
<text x="170" y="197.5" class="axisLabel">5</text>
<line x1="125" x2="145" y1="135" y2="135" stroke="black" stroke-width="2"/>
<text x="170" y="140" class="axisLabel">10</text>
<line x1="125" x2="145" y1="77.5" y2="77.5" stroke="black" stroke-width="2"/>
<text x="170" y="82.5" class="axisLabel">15</text>
<line x1="125" x2="145" y1="20" y2="20" stroke="black" stroke-width="2"/>
<text x="170" y="25" class="axisLabel">20</text>

<line x1="25.9999999999999" x2="26.4999999999999" y1="359.0000000000001" y2="358.5000000000001" stroke="red" stroke-width="5"/>
<line x1="26.4999999999999" x2="26.9999999999999" y1="358.5000000000001" y2="358.0000000000001" stroke="red" stroke-width="5"/>
<line x1="26.999999999999886" x2="27.499999999999886" y1="358.0000000000001" y2="357.5000000000001" stroke="red" stroke-width="5"/>
<line x1="27.499999999999886" x2="27.999999999999886" y1="357.5000000000001" y2="357.0000000000001" stroke="red" stroke-width="5"/>
<line x1="27.999999999999872" x2="28.499999999999872" y1="357.0000000000001" y2="356.5000000000001" stroke="red" stroke-width="5"/>
<line x1="28.499999999999858" x2="28.999999999999858" y1="356.5000000000001" y2="356.0000000000001" stroke="red" stroke-width="5"/>
<line x1="28.999999999999858" x2="29.499999999999858" y1="356.0000000000001" y2="355.50000000000017" stroke="red" stroke-width="5"/>
<line x1="29.499999999999844" x2="29.999999999999844" y1="355.50000000000017" y2="355.00000000000017" stroke="red" stroke-width="5"/>
<line x1="29.999999999999844" x2="30.499999999999844" y1="355.00000000000017" y2="354.5000000000001" stroke="red" stroke-width="5"/>
<line x1="30.49999999999983" x2="30.99999999999983" y1="354.50000000000017" y2="354.00000000000017" stroke="red" stroke-width="5"/>
<line x1="30.99999999999983" x2="31.49999999999983" y1="354.00000000000017" y2="353.50000000000017" stroke="red" stroke-width="5"/>
<line x1="31.499999999999815" x2="31.999999999999815" y1="353.50000000000017" y2="353.0000000000002" stroke="red" stroke-width="5"/>
<line x1="37.999999999999716" x2="38.499999999999716" y1="347.0000000000003" y2="346.5000000000003" stroke="red" stroke-width="5"/>
<line x1="38.4999999999997" x2="38.9999999999997" y1="346.5000000000003" y2="346.0000000000003" stroke="red" stroke-width="5"/>
<line x1="38.9999999999997" x2="39.4999999999997" y1="346.0000000000003" y2="345.5000000000003" stroke="red" stroke-width="5"/>
<line x1="39.49999999999969" x2="39.99999999999969" y1="345.50000000000034" y2="345.00000000000034" stroke="red" stroke-width="5"/>
<line x1="39.99999999999969" x2="40.49999999999969" y1="345.00000000000034" y2="344.50000000000034" stroke="red" stroke-width="5"/>
<line x1="40.49999999999967" x2="40.99999999999967" y1="344.50000000000034" y2="344.00000000000034" stroke="red" stroke-width="5"/>
<line x1="40.99999999999966" x2="41.49999999999966" y1="344.00000000000034" y2="343.50000000000034" stroke="red" stroke-width="5"/>
<line x1="41.49999999999966" x2="41.99999999999966" y1="343.50000000000034" y2="343.00000000000034" stroke="red" stroke-width="5"/>
<line x1="41.999999999999645" x2="42.499999999999645" y1="343.00000000000034" y2="342.50000000000034" stroke="red" stroke-width="5"/>
<line x1="42.499999999999645" x2="42.999999999999645" y1="342.50000000000034" y2="342.00000000000034" stroke="red" stroke-width="5"/>
<line x1="42.99999999999963" x2="43.49999999999963" y1="342.00000000000034" y2="341.50000000000034" stroke="red" stroke-width="5"/>
<line x1="43.49999999999963" x2="43.99999999999963" y1="341.50000000000034" y2="341.00000000000034" stroke="red" stroke-width="5"/>
<line x1="49.99999999999966" x2="50.49999999999966" y1="335.00000000000034" y2="334.50000000000034" stroke="red" stroke-width="5"/>
<line x1="50.49999999999966" x2="50.99999999999966" y1="334.50000000000034" y2="334.00000000000034" stroke="red" stroke-width="5"/>
<line x1="50.99999999999967" x2="51.49999999999967" y1="334.00000000000034" y2="333.50000000000034" stroke="red" stroke-width="5"/>
<line x1="51.49999999999967" x2="51.99999999999967" y1="333.50000000000034" y2="333.00000000000034" stroke="red" stroke-width="5"/>
<line x1="51.99999999999967" x2="52.49999999999967" y1="333.00000000000034" y2="332.50000000000034" stroke="red" stroke-width="5"/>
<line x1="52.49999999999967" x2="52.99999999999967" y1="332.50000000000034" y2="332.00000000000034" stroke="red" stroke-width="5"/>
<line x1="52.99999999999967" x2="53.49999999999967" y1="332.00000000000034" y2="331.50000000000034" stroke="red" stroke-width="5"/>
<line x1="53.49999999999967" x2="53.99999999999967" y1="331.50000000000034" y2="331.00000000000034" stroke="red" stroke-width="5"/>
<line x1="53.99999999999969" x2="54.49999999999969" y1="331.00000000000034" y2="330.50000000000034" stroke="red" stroke-width="5"/>
<line x1="54.49999999999969" x2="54.99999999999969" y1="330.50000000000034" y2="330.00000000000034" stroke="red" stroke-width="5"/>
<line x1="54.99999999999969" x2="55.49999999999969" y1="330.00000000000034" y2="329.50000000000034" stroke="red" stroke-width="5"/>
<line x1="55.49999999999969" x2="55.99999999999969" y1="329.50000000000034" y2="329.00000000000034" stroke="red" stroke-width="5"/>
<line x1="61.999999999999716" x2="62.499999999999716" y1="323.0000000000003" y2="322.5000000000003" stroke="red" stroke-width="5"/>
<line x1="62.499999999999716" x2="62.999999999999716" y1="322.5000000000003" y2="322.0000000000003" stroke="red" stroke-width="5"/>
<line x1="62.999999999999716" x2="63.499999999999716" y1="322.0000000000003" y2="321.5000000000003" stroke="red" stroke-width="5"/>
<line x1="63.49999999999973" x2="63.99999999999973" y1="321.5000000000003" y2="321.0000000000003" stroke="red" stroke-width="5"/>
<line x1="63.99999999999973" x2="64.49999999999973" y1="321.0000000000003" y2="320.5000000000003" stroke="red" stroke-width="5"/>
<line x1="64.49999999999973" x2="64.99999999999973" y1="320.5000000000003" y2="320.0000000000003" stroke="red" stroke-width="5"/>
<line x1="64.99999999999973" x2="65.49999999999973" y1="320.0000000000003" y2="319.5000000000003" stroke="red" stroke-width="5"/>
<line x1="65.49999999999973" x2="65.99999999999973" y1="319.5000000000003" y2="319.0000000000003" stroke="red" stroke-width="5"/>
<line x1="65.99999999999973" x2="66.49999999999973" y1="319.0000000000003" y2="318.5000000000003" stroke="red" stroke-width="5"/>
<line x1="66.49999999999973" x2="66.99999999999973" y1="318.5000000000003" y2="318.0000000000003" stroke="red" stroke-width="5"/>
<line x1="66.99999999999974" x2="67.49999999999974" y1="318.0000000000002" y2="317.5000000000002" stroke="red" stroke-width="5"/>
<line x1="67.49999999999974" x2="67.99999999999974" y1="317.5000000000002" y2="317.0000000000002" stroke="red" stroke-width="5"/>
<line x1="73.99999999999977" x2="74.49999999999977" y1="311.0000000000002" y2="310.5000000000002" stroke="red" stroke-width="5"/>
<line x1="74.49999999999977" x2="74.99999999999977" y1="310.5000000000002" y2="310.0000000000002" stroke="red" stroke-width="5"/>
<line x1="74.99999999999977" x2="75.49999999999977" y1="310.0000000000002" y2="309.5000000000002" stroke="red" stroke-width="5"/>
<line x1="75.49999999999977" x2="75.99999999999977" y1="309.5000000000002" y2="309.0000000000002" stroke="red" stroke-width="5"/>
<line x1="75.99999999999977" x2="76.49999999999977" y1="309.0000000000002" y2="308.5000000000002" stroke="red" stroke-width="5"/>
<line x1="76.49999999999977" x2="76.99999999999977" y1="308.5000000000002" y2="308.0000000000002" stroke="red" stroke-width="5"/>
<line x1="76.99999999999979" x2="77.49999999999979" y1="308.0000000000002" y2="307.5000000000002" stroke="red" stroke-width="5"/>
<line x1="77.49999999999979" x2="77.99999999999979" y1="307.5000000000002" y2="307.0000000000002" stroke="red" stroke-width="5"/>
<line x1="77.99999999999979" x2="78.49999999999979" y1="307.0000000000002" y2="306.5000000000002" stroke="red" stroke-width="5"/>
<line x1="78.49999999999979" x2="78.99999999999979" y1="306.5000000000002" y2="306.0000000000002" stroke="red" stroke-width="5"/>
<line x1="78.9999999999998" x2="79.4999999999998" y1="306.0000000000002" y2="305.5000000000002" stroke="red" stroke-width="5"/>
<line x1="79.4999999999998" x2="79.9999999999998" y1="305.5000000000002" y2="305.0000000000002" stroke="red" stroke-width="5"/>
<line x1="85.99999999999983" x2="86.49999999999983" y1="299.00000000000017" y2="298.50000000000017" stroke="red" stroke-width="5"/>
<line x1="86.49999999999983" x2="86.99999999999983" y1="298.50000000000017" y2="298.00000000000017" stroke="red" stroke-width="5"/>
<line x1="86.99999999999983" x2="87.49999999999983" y1="298.00000000000017" y2="297.50000000000017" stroke="red" stroke-width="5"/>
<line x1="87.49999999999983" x2="87.99999999999983" y1="297.50000000000017" y2="297.00000000000017" stroke="red" stroke-width="5"/>
<line x1="87.99999999999983" x2="88.49999999999983" y1="297.00000000000017" y2="296.50000000000017" stroke="red" stroke-width="5"/>
<line x1="88.49999999999983" x2="88.99999999999983" y1="296.50000000000017" y2="296.00000000000017" stroke="red" stroke-width="5"/>
<line x1="88.99999999999983" x2="89.49999999999983" y1="296.00000000000017" y2="295.50000000000017" stroke="red" stroke-width="5"/>
<line x1="89.49999999999983" x2="89.99999999999983" y1="295.50000000000017" y2="295.00000000000017" stroke="red" stroke-width="5"/>
<line x1="89.99999999999984" x2="90.49999999999984" y1="295.00000000000017" y2="294.50000000000017" stroke="red" stroke-width="5"/>
<line x1="90.49999999999984" x2="90.99999999999984" y1="294.50000000000017" y2="294.00000000000017" stroke="red" stroke-width="5"/>
<line x1="90.99999999999984" x2="91.49999999999984" y1="294.00000000000017" y2="293.50000000000017" stroke="red" stroke-width="5"/>
<line x1="91.49999999999986" x2="91.99999999999986" y1="293.50000000000017" y2="293.0000000000001" stroke="red" stroke-width="5"/>
<line x1="97.99999999999989" x2="98.49999999999989" y1="287.0000000000001" y2="286.5000000000001" stroke="red" stroke-width="5"/>
<line x1="98.49999999999989" x2="98.99999999999989" y1="286.5000000000001" y2="286.0000000000001" stroke="red" stroke-width="5"/>
<line x1="98.99999999999989" x2="99.49999999999989" y1="286.0000000000001" y2="285.5000000000001" stroke="red" stroke-width="5"/>
<line x1="99.49999999999989" x2="99.99999999999989" y1="285.5000000000001" y2="285.0000000000001" stroke="red" stroke-width="5"/>
<line x1="99.99999999999989" x2="100.49999999999989" y1="285.0000000000001" y2="284.5000000000001" stroke="red" stroke-width="5"/>
<line x1="100.49999999999989" x2="100.99999999999989" y1="284.5000000000001" y2="284.0000000000001" stroke="red" stroke-width="5"/>
<line x1="100.99999999999989" x2="101.49999999999989" y1="284.0000000000001" y2="283.5000000000001" stroke="red" stroke-width="5"/>
<line x1="101.49999999999989" x2="101.99999999999989" y1="283.5000000000001" y2="283.0000000000001" stroke="red" stroke-width="5"/>
<line x1="101.99999999999989" x2="102.49999999999989" y1="283.0000000000001" y2="282.5000000000001" stroke="red" stroke-width="5"/>
<line x1="102.49999999999989" x2="102.99999999999989" y1="282.5000000000001" y2="282.0000000000001" stroke="red" stroke-width="5"/>
<line x1="102.9999999999999" x2="103.4999999999999" y1="282.0000000000001" y2="281.5000000000001" stroke="red" stroke-width="5"/>
<line x1="103.4999999999999" x2="103.9999999999999" y1="281.5000000000001" y2="281.0000000000001" stroke="red" stroke-width="5"/>
<line x1="109.99999999999993" x2="110.49999999999993" y1="275.00000000000006" y2="274.50000000000006" stroke="red" stroke-width="5"/>
<line x1="110.49999999999993" x2="110.99999999999993" y1="274.50000000000006" y2="274.00000000000006" stroke="red" stroke-width="5"/>
<line x1="110.99999999999994" x2="111.49999999999994" y1="274.00000000000006" y2="273.50000000000006" stroke="red" stroke-width="5"/>
<line x1="111.49999999999994" x2="111.99999999999994" y1="273.50000000000006" y2="273.00000000000006" stroke="red" stroke-width="5"/>
<line x1="111.99999999999994" x2="112.49999999999994" y1="273.00000000000006" y2="272.50000000000006" stroke="red" stroke-width="5"/>
<line x1="112.49999999999994" x2="112.99999999999994" y1="272.50000000000006" y2="272.00000000000006" stroke="red" stroke-width="5"/>
<line x1="112.99999999999994" x2="113.49999999999994" y1="272.00000000000006" y2="271.50000000000006" stroke="red" stroke-width="5"/>
<line x1="113.49999999999994" x2="113.99999999999994" y1="271.50000000000006" y2="271.00000000000006" stroke="red" stroke-width="5"/>
<line x1="113.99999999999994" x2="114.49999999999994" y1="271.00000000000006" y2="270.50000000000006" stroke="red" stroke-width="5"/>
<line x1="114.49999999999994" x2="114.99999999999994" y1="270.50000000000006" y2="270.00000000000006" stroke="red" stroke-width="5"/>
<line x1="114.99999999999994" x2="115.49999999999994" y1="270.00000000000006" y2="269.50000000000006" stroke="red" stroke-width="5"/>
<line x1="115.49999999999994" x2="115.99999999999994" y1="269.50000000000006" y2="269.00000000000006" stroke="red" stroke-width="5"/>
<line x1="121.99999999999993" x2="122.49999999999993" y1="263.00000000000006" y2="262.50000000000006" stroke="red" stroke-width="5"/>
<line x1="122.49999999999993" x2="122.99999999999993" y1="262.50000000000006" y2="262.00000000000006" stroke="red" stroke-width="5"/>
<line x1="122.99999999999993" x2="123.49999999999993" y1="262.00000000000006" y2="261.50000000000006" stroke="red" stroke-width="5"/>
<line x1="123.49999999999993" x2="123.99999999999993" y1="261.50000000000006" y2="261.00000000000006" stroke="red" stroke-width="5"/>
<line x1="123.99999999999993" x2="124.49999999999993" y1="261.00000000000006" y2="260.50000000000006" stroke="red" stroke-width="5"/>
<line x1="124.49999999999993" x2="124.99999999999993" y1="260.50000000000006" y2="260.00000000000006" stroke="red" stroke-width="5"/>
<line x1="124.99999999999993" x2="125.49999999999993" y1="260.00000000000006" y2="259.50000000000006" stroke="red" stroke-width="5"/>
<line x1="125.49999999999993" x2="125.99999999999993" y1="259.50000000000006" y2="259.00000000000006" stroke="red" stroke-width="5"/>
<line x1="125.99999999999993" x2="126.49999999999993" y1="259.00000000000006" y2="258.50000000000006" stroke="red" stroke-width="5"/>
<line x1="126.49999999999993" x2="126.99999999999993" y1="258.50000000000006" y2="258.00000000000006" stroke="red" stroke-width="5"/>
<line x1="126.99999999999993" x2="127.49999999999993" y1="258.00000000000006" y2="257.50000000000006" stroke="red" stroke-width="5"/>
<line x1="127.49999999999993" x2="127.99999999999993" y1="257.50000000000006" y2="257.00000000000006" stroke="red" stroke-width="5"/>
<line x1="133.99999999999991" x2="134.49999999999991" y1="251.00000000000009" y2="250.50000000000009" stroke="red" stroke-width="5"/>
<line x1="134.49999999999991" x2="134.99999999999991" y1="250.50000000000009" y2="250.00000000000009" stroke="red" stroke-width="5"/>
<line x1="134.99999999999991" x2="135.49999999999991" y1="250.00000000000009" y2="249.50000000000009" stroke="red" stroke-width="5"/>
<line x1="135.49999999999991" x2="135.99999999999991" y1="249.50000000000009" y2="249.00000000000009" stroke="red" stroke-width="5"/>
<line x1="135.99999999999991" x2="136.49999999999991" y1="249.00000000000009" y2="248.50000000000009" stroke="red" stroke-width="5"/>
<line x1="136.49999999999991" x2="136.99999999999991" y1="248.50000000000009" y2="248.00000000000009" stroke="red" stroke-width="5"/>
<line x1="136.99999999999991" x2="137.49999999999991" y1="248.00000000000009" y2="247.50000000000009" stroke="red" stroke-width="5"/>
<line x1="137.49999999999991" x2="137.99999999999991" y1="247.50000000000009" y2="247.00000000000009" stroke="red" stroke-width="5"/>
<line x1="137.99999999999991" x2="138.49999999999991" y1="247.00000000000009" y2="246.50000000000009" stroke="red" stroke-width="5"/>
<line x1="138.49999999999991" x2="138.99999999999991" y1="246.50000000000009" y2="246.00000000000009" stroke="red" stroke-width="5"/>
<line x1="138.99999999999991" x2="139.49999999999991" y1="246.00000000000009" y2="245.50000000000009" stroke="red" stroke-width="5"/>
<line x1="139.49999999999991" x2="139.99999999999991" y1="245.50000000000009" y2="245.00000000000009" stroke="red" stroke-width="5"/>
<line x1="145.99999999999991" x2="146.49999999999991" y1="239.00000000000009" y2="238.50000000000009" stroke="red" stroke-width="5"/>
<line x1="146.49999999999991" x2="146.99999999999991" y1="238.50000000000009" y2="238.00000000000009" stroke="red" stroke-width="5"/>
<line x1="146.99999999999991" x2="147.49999999999991" y1="238.00000000000009" y2="237.50000000000009" stroke="red" stroke-width="5"/>
<line x1="147.49999999999991" x2="147.99999999999991" y1="237.50000000000009" y2="237.00000000000009" stroke="red" stroke-width="5"/>
<line x1="147.99999999999991" x2="148.49999999999991" y1="237.00000000000009" y2="236.50000000000009" stroke="red" stroke-width="5"/>
<line x1="148.49999999999991" x2="148.99999999999991" y1="236.50000000000009" y2="236.00000000000009" stroke="red" stroke-width="5"/>
<line x1="148.99999999999991" x2="149.49999999999991" y1="236.00000000000009" y2="235.50000000000009" stroke="red" stroke-width="5"/>
<line x1="149.49999999999991" x2="149.99999999999991" y1="235.50000000000009" y2="235.00000000000009" stroke="red" stroke-width="5"/>
<line x1="149.99999999999991" x2="150.49999999999991" y1="235.00000000000009" y2="234.50000000000009" stroke="red" stroke-width="5"/>
<line x1="150.49999999999991" x2="150.99999999999991" y1="234.50000000000009" y2="234.00000000000009" stroke="red" stroke-width="5"/>
<line x1="150.99999999999991" x2="151.49999999999991" y1="234.00000000000009" y2="233.50000000000009" stroke="red" stroke-width="5"/>
<line x1="151.49999999999991" x2="151.99999999999991" y1="233.50000000000009" y2="233.00000000000009" stroke="red" stroke-width="5"/>
<line x1="157.99999999999991" x2="158.49999999999991" y1="227.00000000000009" y2="226.50000000000009" stroke="red" stroke-width="5"/>
<line x1="158.49999999999991" x2="158.99999999999991" y1="226.50000000000009" y2="226.00000000000009" stroke="red" stroke-width="5"/>
<line x1="158.99999999999991" x2="159.49999999999991" y1="226.00000000000009" y2="225.50000000000009" stroke="red" stroke-width="5"/>
<line x1="159.49999999999991" x2="159.99999999999991" y1="225.50000000000009" y2="225.00000000000009" stroke="red" stroke-width="5"/>
<line x1="159.99999999999991" x2="160.49999999999991" y1="225.00000000000009" y2="224.50000000000009" stroke="red" stroke-width="5"/>
<line x1="160.49999999999991" x2="160.99999999999991" y1="224.50000000000009" y2="224.00000000000009" stroke="red" stroke-width="5"/>
<line x1="160.99999999999991" x2="161.49999999999991" y1="224.00000000000009" y2="223.50000000000009" stroke="red" stroke-width="5"/>
<line x1="161.49999999999994" x2="161.99999999999994" y1="223.50000000000006" y2="223.00000000000006" stroke="red" stroke-width="5"/>
<line x1="161.99999999999994" x2="162.49999999999994" y1="223.00000000000006" y2="222.50000000000006" stroke="red" stroke-width="5"/>
<line x1="162.49999999999994" x2="162.99999999999994" y1="222.50000000000006" y2="222.00000000000006" stroke="red" stroke-width="5"/>
<line x1="162.99999999999994" x2="163.49999999999994" y1="222.00000000000006" y2="221.50000000000006" stroke="red" stroke-width="5"/>
<line x1="163.49999999999994" x2="163.99999999999994" y1="221.50000000000006" y2="221.00000000000006" stroke="red" stroke-width="5"/>
<line x1="169.99999999999997" x2="170.49999999999997" y1="215.00000000000003" y2="214.50000000000003" stroke="red" stroke-width="5"/>
<line x1="170.49999999999997" x2="170.99999999999997" y1="214.50000000000003" y2="214.00000000000003" stroke="red" stroke-width="5"/>
<line x1="170.99999999999997" x2="171.49999999999997" y1="214.00000000000003" y2="213.50000000000003" stroke="red" stroke-width="5"/>
<line x1="171.49999999999997" x2="171.99999999999997" y1="213.50000000000003" y2="213.00000000000003" stroke="red" stroke-width="5"/>
<line x1="171.99999999999997" x2="172.49999999999997" y1="213.00000000000003" y2="212.50000000000003" stroke="red" stroke-width="5"/>
<line x1="172.49999999999997" x2="172.99999999999997" y1="212.50000000000003" y2="212.00000000000003" stroke="red" stroke-width="5"/>
<line x1="172.99999999999997" x2="173.49999999999997" y1="212.00000000000003" y2="211.50000000000003" stroke="red" stroke-width="5"/>
<line x1="173.49999999999997" x2="173.99999999999997" y1="211.50000000000003" y2="211.00000000000003" stroke="red" stroke-width="5"/>
<line x1="174" x2="174.5" y1="211" y2="210.5" stroke="red" stroke-width="5"/>
<line x1="174.5" x2="175" y1="210.5" y2="210" stroke="red" stroke-width="5"/>
<line x1="175" x2="175.5" y1="210" y2="209.5" stroke="red" stroke-width="5"/>
<line x1="175.5" x2="176" y1="209.5" y2="209" stroke="red" stroke-width="5"/>
<line x1="182" x2="182.5" y1="203" y2="202.5" stroke="red" stroke-width="5"/>
<line x1="182.5" x2="183" y1="202.5" y2="202" stroke="red" stroke-width="5"/>
<line x1="183.00000000000003" x2="183.50000000000003" y1="201.99999999999997" y2="201.49999999999997" stroke="red" stroke-width="5"/>
<line x1="183.50000000000003" x2="184.00000000000003" y1="201.49999999999997" y2="200.99999999999997" stroke="red" stroke-width="5"/>
<line x1="184.00000000000003" x2="184.50000000000003" y1="200.99999999999997" y2="200.49999999999997" stroke="red" stroke-width="5"/>
<line x1="184.50000000000003" x2="185.00000000000003" y1="200.49999999999997" y2="199.99999999999997" stroke="red" stroke-width="5"/>
<line x1="185.00000000000003" x2="185.50000000000003" y1="199.99999999999997" y2="199.49999999999997" stroke="red" stroke-width="5"/>
<line x1="185.50000000000003" x2="186.00000000000003" y1="199.49999999999997" y2="198.99999999999997" stroke="red" stroke-width="5"/>
<line x1="186.00000000000003" x2="186.50000000000003" y1="198.99999999999997" y2="198.49999999999997" stroke="red" stroke-width="5"/>
<line x1="186.50000000000003" x2="187.00000000000003" y1="198.49999999999997" y2="197.99999999999997" stroke="red" stroke-width="5"/>
<line x1="187.00000000000003" x2="187.50000000000003" y1="197.99999999999997" y2="197.49999999999997" stroke="red" stroke-width="5"/>
<line x1="187.50000000000006" x2="188.00000000000006" y1="197.49999999999994" y2="196.99999999999994" stroke="red" stroke-width="5"/>
<line x1="194.00000000000006" x2="194.50000000000006" y1="190.99999999999994" y2="190.49999999999994" stroke="red" stroke-width="5"/>
<line x1="194.50000000000006" x2="195.00000000000006" y1="190.49999999999994" y2="189.99999999999994" stroke="red" stroke-width="5"/>
<line x1="195.00000000000006" x2="195.50000000000006" y1="189.99999999999994" y2="189.49999999999994" stroke="red" stroke-width="5"/>
<line x1="195.50000000000006" x2="196.00000000000006" y1="189.49999999999994" y2="188.99999999999994" stroke="red" stroke-width="5"/>
<line x1="196.00000000000009" x2="196.50000000000009" y1="188.99999999999991" y2="188.49999999999991" stroke="red" stroke-width="5"/>
<line x1="196.50000000000009" x2="197.00000000000009" y1="188.49999999999991" y2="187.99999999999991" stroke="red" stroke-width="5"/>
<line x1="197.00000000000009" x2="197.50000000000009" y1="187.99999999999991" y2="187.49999999999991" stroke="red" stroke-width="5"/>
<line x1="197.50000000000009" x2="198.00000000000009" y1="187.49999999999991" y2="186.99999999999991" stroke="red" stroke-width="5"/>
<line x1="198.00000000000009" x2="198.50000000000009" y1="186.99999999999991" y2="186.49999999999991" stroke="red" stroke-width="5"/>
<line x1="198.50000000000009" x2="199.00000000000009" y1="186.49999999999991" y2="185.99999999999991" stroke="red" stroke-width="5"/>
<line x1="199.00000000000009" x2="199.50000000000009" y1="185.99999999999991" y2="185.49999999999991" stroke="red" stroke-width="5"/>
<line x1="199.50000000000009" x2="200.00000000000009" y1="185.49999999999991" y2="184.99999999999991" stroke="red" stroke-width="5"/>
<line x1="206.0000000000001" x2="206.5000000000001" y1="178.9999999999999" y2="178.4999999999999" stroke="red" stroke-width="5"/>
<line x1="206.5000000000001" x2="207.0000000000001" y1="178.4999999999999" y2="177.9999999999999" stroke="red" stroke-width="5"/>
<line x1="207.0000000000001" x2="207.5000000000001" y1="177.9999999999999" y2="177.4999999999999" stroke="red" stroke-width="5"/>
<line x1="207.5000000000001" x2="208.0000000000001" y1="177.4999999999999" y2="176.9999999999999" stroke="red" stroke-width="5"/>
<line x1="208.0000000000001" x2="208.5000000000001" y1="176.9999999999999" y2="176.4999999999999" stroke="red" stroke-width="5"/>
<line x1="208.5000000000001" x2="209.0000000000001" y1="176.4999999999999" y2="175.9999999999999" stroke="red" stroke-width="5"/>
<line x1="209.0000000000001" x2="209.5000000000001" y1="175.9999999999999" y2="175.4999999999999" stroke="red" stroke-width="5"/>
<line x1="209.50000000000014" x2="210.00000000000014" y1="175.49999999999986" y2="174.99999999999986" stroke="red" stroke-width="5"/>
<line x1="210.00000000000014" x2="210.50000000000014" y1="174.99999999999986" y2="174.49999999999986" stroke="red" stroke-width="5"/>
<line x1="210.50000000000014" x2="211.00000000000014" y1="174.49999999999986" y2="173.99999999999986" stroke="red" stroke-width="5"/>
<line x1="211.00000000000014" x2="211.50000000000014" y1="173.99999999999986" y2="173.49999999999986" stroke="red" stroke-width="5"/>
<line x1="211.50000000000014" x2="212.00000000000014" y1="173.49999999999986" y2="172.99999999999986" stroke="red" stroke-width="5"/>
<line x1="218.00000000000017" x2="218.50000000000017" y1="166.99999999999983" y2="166.49999999999983" stroke="red" stroke-width="5"/>
<line x1="218.50000000000017" x2="219.00000000000017" y1="166.49999999999983" y2="165.99999999999983" stroke="red" stroke-width="5"/>
<line x1="219.00000000000017" x2="219.50000000000017" y1="165.99999999999983" y2="165.49999999999983" stroke="red" stroke-width="5"/>
<line x1="219.50000000000017" x2="220.00000000000017" y1="165.49999999999983" y2="164.99999999999983" stroke="red" stroke-width="5"/>
<line x1="220.00000000000017" x2="220.50000000000017" y1="164.99999999999983" y2="164.49999999999983" stroke="red" stroke-width="5"/>
<line x1="220.50000000000017" x2="221.00000000000017" y1="164.49999999999983" y2="163.99999999999983" stroke="red" stroke-width="5"/>
<line x1="221.00000000000017" x2="221.50000000000017" y1="163.99999999999983" y2="163.49999999999983" stroke="red" stroke-width="5"/>
<line x1="221.50000000000017" x2="222.00000000000017" y1="163.49999999999983" y2="162.99999999999983" stroke="red" stroke-width="5"/>
<line x1="222.0000000000002" x2="222.5000000000002" y1="162.9999999999998" y2="162.4999999999998" stroke="red" stroke-width="5"/>
<line x1="222.5000000000002" x2="223.0000000000002" y1="162.4999999999998" y2="161.9999999999998" stroke="red" stroke-width="5"/>
<line x1="223.0000000000002" x2="223.5000000000002" y1="161.9999999999998" y2="161.4999999999998" stroke="red" stroke-width="5"/>
<line x1="223.5000000000002" x2="224.0000000000002" y1="161.4999999999998" y2="160.9999999999998" stroke="red" stroke-width="5"/>
<line x1="230.00000000000017" x2="230.50000000000017" y1="154.99999999999983" y2="154.49999999999983" stroke="red" stroke-width="5"/>
<line x1="230.50000000000014" x2="231.00000000000014" y1="154.49999999999986" y2="153.99999999999986" stroke="red" stroke-width="5"/>
<line x1="231.00000000000014" x2="231.50000000000014" y1="153.99999999999986" y2="153.4999999999999" stroke="red" stroke-width="5"/>
<line x1="231.5000000000001" x2="232.0000000000001" y1="153.4999999999999" y2="152.9999999999999" stroke="red" stroke-width="5"/>
<line x1="232.0000000000001" x2="232.5000000000001" y1="152.9999999999999" y2="152.4999999999999" stroke="red" stroke-width="5"/>
<line x1="232.5000000000001" x2="233.0000000000001" y1="152.4999999999999" y2="151.9999999999999" stroke="red" stroke-width="5"/>
<line x1="233.0000000000001" x2="233.5000000000001" y1="151.9999999999999" y2="151.4999999999999" stroke="red" stroke-width="5"/>
<line x1="233.5000000000001" x2="234.0000000000001" y1="151.4999999999999" y2="150.9999999999999" stroke="red" stroke-width="5"/>
<line x1="234.00000000000009" x2="234.50000000000009" y1="150.99999999999991" y2="150.49999999999991" stroke="red" stroke-width="5"/>
<line x1="234.50000000000009" x2="235.00000000000009" y1="150.49999999999991" y2="149.99999999999994" stroke="red" stroke-width="5"/>
<line x1="235.00000000000006" x2="235.50000000000006" y1="149.99999999999994" y2="149.49999999999994" stroke="red" stroke-width="5"/>
<line x1="235.50000000000006" x2="236.00000000000006" y1="149.49999999999994" y2="148.99999999999994" stroke="red" stroke-width="5"/>
<line x1="241.99999999999997" x2="242.49999999999997" y1="143.00000000000003" y2="142.50000000000003" stroke="red" stroke-width="5"/>
<line x1="242.49999999999994" x2="242.99999999999994" y1="142.50000000000006" y2="142.00000000000006" stroke="red" stroke-width="5"/>
<line x1="242.99999999999994" x2="243.49999999999994" y1="142.00000000000006" y2="141.50000000000006" stroke="red" stroke-width="5"/>
<line x1="243.49999999999994" x2="243.99999999999994" y1="141.50000000000006" y2="141.00000000000006" stroke="red" stroke-width="5"/>
<line x1="243.99999999999994" x2="244.49999999999994" y1="141.00000000000006" y2="140.50000000000006" stroke="red" stroke-width="5"/>
<line x1="244.49999999999994" x2="244.99999999999994" y1="140.50000000000006" y2="140.00000000000006" stroke="red" stroke-width="5"/>
<line x1="244.99999999999991" x2="245.49999999999991" y1="140.00000000000009" y2="139.50000000000009" stroke="red" stroke-width="5"/>
<line x1="245.49999999999991" x2="245.99999999999991" y1="139.50000000000009" y2="139.00000000000009" stroke="red" stroke-width="5"/>
<line x1="245.9999999999999" x2="246.4999999999999" y1="139.0000000000001" y2="138.5000000000001" stroke="red" stroke-width="5"/>
<line x1="246.4999999999999" x2="246.9999999999999" y1="138.5000000000001" y2="138.0000000000001" stroke="red" stroke-width="5"/>
<line x1="246.9999999999999" x2="247.4999999999999" y1="138.0000000000001" y2="137.5000000000001" stroke="red" stroke-width="5"/>
<line x1="247.4999999999999" x2="247.9999999999999" y1="137.5000000000001" y2="137.0000000000001" stroke="red" stroke-width="5"/>
<line x1="253.99999999999977" x2="254.49999999999977" y1="131.00000000000023" y2="130.50000000000023" stroke="red" stroke-width="5"/>
<line x1="254.49999999999977" x2="254.99999999999977" y1="130.50000000000023" y2="130.00000000000023" stroke="red" stroke-width="5"/>
<line x1="254.99999999999977" x2="255.49999999999977" y1="130.00000000000023" y2="129.50000000000023" stroke="red" stroke-width="5"/>
<line x1="255.49999999999974" x2="255.99999999999974" y1="129.50000000000026" y2="129.00000000000026" stroke="red" stroke-width="5"/>
<line x1="255.99999999999974" x2="256.4999999999998" y1="129.00000000000026" y2="128.50000000000023" stroke="red" stroke-width="5"/>
<line x1="256.4999999999997" x2="256.9999999999997" y1="128.50000000000028" y2="128.00000000000028" stroke="red" stroke-width="5"/>
<line x1="256.9999999999997" x2="257.4999999999997" y1="128.00000000000028" y2="127.50000000000028" stroke="red" stroke-width="5"/>
<line x1="257.4999999999997" x2="257.9999999999997" y1="127.50000000000028" y2="127.00000000000028" stroke="red" stroke-width="5"/>
<line x1="257.9999999999997" x2="258.4999999999997" y1="127.00000000000028" y2="126.50000000000028" stroke="red" stroke-width="5"/>
<line x1="258.4999999999997" x2="258.9999999999997" y1="126.5000000000003" y2="126.00000000000028" stroke="red" stroke-width="5"/>
<line x1="258.99999999999966" x2="259.49999999999966" y1="126.00000000000031" y2="125.50000000000034" stroke="red" stroke-width="5"/>
<line x1="259.49999999999966" x2="259.99999999999966" y1="125.50000000000031" y2="125.00000000000034" stroke="red" stroke-width="5"/>
<line x1="265.99999999999955" x2="266.49999999999955" y1="119.00000000000043" y2="118.50000000000045" stroke="red" stroke-width="5"/>
<line x1="266.49999999999955" x2="266.99999999999955" y1="118.50000000000043" y2="118.00000000000045" stroke="red" stroke-width="5"/>
<line x1="266.99999999999955" x2="267.49999999999955" y1="118.00000000000043" y2="117.50000000000045" stroke="red" stroke-width="5"/>
<line x1="267.49999999999955" x2="267.99999999999955" y1="117.50000000000045" y2="117.00000000000045" stroke="red" stroke-width="5"/>
<line x1="267.99999999999955" x2="268.49999999999955" y1="117.00000000000045" y2="116.50000000000045" stroke="red" stroke-width="5"/>
<line x1="268.49999999999955" x2="268.99999999999955" y1="116.50000000000045" y2="116.00000000000045" stroke="red" stroke-width="5"/>
<line x1="268.99999999999955" x2="269.49999999999955" y1="116.00000000000045" y2="115.50000000000045" stroke="red" stroke-width="5"/>
<line x1="269.49999999999955" x2="269.99999999999955" y1="115.50000000000048" y2="115.00000000000045" stroke="red" stroke-width="5"/>
<line x1="269.99999999999955" x2="270.49999999999955" y1="115.00000000000048" y2="114.50000000000045" stroke="red" stroke-width="5"/>
<line x1="270.49999999999955" x2="270.99999999999955" y1="114.50000000000048" y2="114.00000000000045" stroke="red" stroke-width="5"/>
<line x1="270.9999999999995" x2="271.4999999999995" y1="114.00000000000051" y2="113.50000000000051" stroke="red" stroke-width="5"/>
<line x1="271.4999999999995" x2="271.9999999999995" y1="113.50000000000051" y2="113.00000000000051" stroke="red" stroke-width="5"/>
<line x1="277.9999999999994" x2="278.4999999999994" y1="107.00000000000063" y2="106.50000000000063" stroke="red" stroke-width="5"/>
<line x1="278.4999999999994" x2="278.9999999999994" y1="106.50000000000063" y2="106.00000000000063" stroke="red" stroke-width="5"/>
<line x1="278.9999999999994" x2="279.4999999999994" y1="106.00000000000063" y2="105.50000000000063" stroke="red" stroke-width="5"/>
<line x1="279.4999999999994" x2="279.9999999999994" y1="105.50000000000063" y2="105.00000000000063" stroke="red" stroke-width="5"/>
<line x1="279.9999999999993" x2="280.4999999999993" y1="105.00000000000065" y2="104.50000000000068" stroke="red" stroke-width="5"/>
<line x1="280.4999999999993" x2="280.9999999999993" y1="104.50000000000065" y2="104.00000000000068" stroke="red" stroke-width="5"/>
<line x1="280.9999999999993" x2="281.4999999999993" y1="104.00000000000065" y2="103.50000000000068" stroke="red" stroke-width="5"/>
<line x1="281.4999999999993" x2="281.9999999999993" y1="103.50000000000065" y2="103.00000000000068" stroke="red" stroke-width="5"/>
<line x1="281.9999999999993" x2="282.4999999999993" y1="103.00000000000068" y2="102.50000000000068" stroke="red" stroke-width="5"/>
<line x1="282.4999999999993" x2="282.9999999999993" y1="102.50000000000068" y2="102.00000000000068" stroke="red" stroke-width="5"/>
<line x1="282.9999999999993" x2="283.4999999999993" y1="102.00000000000068" y2="101.50000000000068" stroke="red" stroke-width="5"/>
<line x1="283.4999999999993" x2="283.9999999999993" y1="101.50000000000071" y2="101.00000000000068" stroke="red" stroke-width="5"/>
<line x1="289.9999999999992" x2="290.4999999999992" y1="95.0000000000008" y2="94.5000000000008" stroke="red" stroke-width="5"/>
<line x1="290.4999999999992" x2="290.9999999999992" y1="94.50000000000082" y2="94.0000000000008" stroke="red" stroke-width="5"/>
<line x1="290.9999999999992" x2="291.4999999999992" y1="94.00000000000082" y2="93.5000000000008" stroke="red" stroke-width="5"/>
<line x1="291.4999999999992" x2="291.9999999999992" y1="93.50000000000082" y2="93.0000000000008" stroke="red" stroke-width="5"/>
<line x1="291.9999999999992" x2="292.4999999999992" y1="93.00000000000082" y2="92.5000000000008" stroke="red" stroke-width="5"/>
<line x1="292.49999999999915" x2="292.99999999999915" y1="92.50000000000085" y2="92.00000000000085" stroke="red" stroke-width="5"/>
<line x1="292.99999999999915" x2="293.49999999999915" y1="92.00000000000085" y2="91.50000000000085" stroke="red" stroke-width="5"/>
<line x1="293.49999999999915" x2="293.99999999999915" y1="91.50000000000085" y2="91.00000000000085" stroke="red" stroke-width="5"/>
<line x1="293.99999999999915" x2="294.49999999999915" y1="91.00000000000085" y2="90.50000000000085" stroke="red" stroke-width="5"/>
<line x1="294.4999999999991" x2="294.9999999999991" y1="90.50000000000088" y2="90.00000000000091" stroke="red" stroke-width="5"/>
<line x1="294.9999999999991" x2="295.4999999999991" y1="90.00000000000088" y2="89.50000000000091" stroke="red" stroke-width="5"/>
<line x1="295.4999999999991" x2="295.9999999999991" y1="89.50000000000088" y2="89.00000000000091" stroke="red" stroke-width="5"/>
<line x1="301.999999999999" x2="302.499999999999" y1="83.000000000001" y2="82.50000000000102" stroke="red" stroke-width="5"/>
<line x1="302.499999999999" x2="302.999999999999" y1="82.500000000001" y2="82.00000000000102" stroke="red" stroke-width="5"/>
<line x1="302.999999999999" x2="303.499999999999" y1="82.00000000000102" y2="81.50000000000102" stroke="red" stroke-width="5"/>
<line x1="303.499999999999" x2="303.999999999999" y1="81.50000000000102" y2="81.00000000000102" stroke="red" stroke-width="5"/>
<line x1="303.999999999999" x2="304.499999999999" y1="81.00000000000102" y2="80.50000000000102" stroke="red" stroke-width="5"/>
<line x1="304.499999999999" x2="304.999999999999" y1="80.50000000000102" y2="80.00000000000102" stroke="red" stroke-width="5"/>
<line x1="304.999999999999" x2="305.499999999999" y1="80.00000000000105" y2="79.50000000000102" stroke="red" stroke-width="5"/>
<line x1="305.499999999999" x2="305.999999999999" y1="79.50000000000105" y2="79.00000000000102" stroke="red" stroke-width="5"/>
<line x1="305.999999999999" x2="306.499999999999" y1="79.00000000000105" y2="78.50000000000102" stroke="red" stroke-width="5"/>
<line x1="306.4999999999989" x2="306.9999999999989" y1="78.50000000000108" y2="78.00000000000108" stroke="red" stroke-width="5"/>
<line x1="306.9999999999989" x2="307.4999999999989" y1="78.00000000000108" y2="77.50000000000108" stroke="red" stroke-width="5"/>
<line x1="307.4999999999989" x2="307.9999999999989" y1="77.50000000000108" y2="77.00000000000108" stroke="red" stroke-width="5"/>
<line x1="313.9999999999988" x2="314.4999999999988" y1="71.0000000000012" y2="70.5000000000012" stroke="red" stroke-width="5"/>
<line x1="314.4999999999988" x2="314.9999999999988" y1="70.5000000000012" y2="70.0000000000012" stroke="red" stroke-width="5"/>
<line x1="314.9999999999988" x2="315.4999999999988" y1="70.0000000000012" y2="69.5000000000012" stroke="red" stroke-width="5"/>
<line x1="315.49999999999875" x2="315.99999999999875" y1="69.50000000000122" y2="69.00000000000125" stroke="red" stroke-width="5"/>
<line x1="315.99999999999875" x2="316.49999999999875" y1="69.00000000000122" y2="68.50000000000125" stroke="red" stroke-width="5"/>
<line x1="316.49999999999875" x2="316.99999999999875" y1="68.50000000000122" y2="68.00000000000125" stroke="red" stroke-width="5"/>
<line x1="316.99999999999875" x2="317.49999999999875" y1="68.00000000000122" y2="67.50000000000125" stroke="red" stroke-width="5"/>
<line x1="317.49999999999875" x2="317.99999999999875" y1="67.50000000000125" y2="67.00000000000125" stroke="red" stroke-width="5"/>
<line x1="317.99999999999875" x2="318.49999999999875" y1="67.00000000000125" y2="66.50000000000125" stroke="red" stroke-width="5"/>
<line x1="318.49999999999875" x2="318.99999999999875" y1="66.50000000000125" y2="66.00000000000125" stroke="red" stroke-width="5"/>
<line x1="318.99999999999875" x2="319.49999999999875" y1="66.00000000000128" y2="65.50000000000125" stroke="red" stroke-width="5"/>
<line x1="319.49999999999875" x2="319.99999999999875" y1="65.50000000000125" y2="65.00000000000125" stroke="red" stroke-width="5"/>
<line x1="325.9999999999989" x2="326.4999999999989" y1="59.00000000000108" y2="58.50000000000108" stroke="red" stroke-width="5"/>
<line x1="326.4999999999989" x2="326.9999999999989" y1="58.50000000000108" y2="58.00000000000108" stroke="red" stroke-width="5"/>
<line x1="326.9999999999989" x2="327.4999999999989" y1="58.00000000000108" y2="57.50000000000111" stroke="red" stroke-width="5"/>
<line x1="327.499999999999" x2="327.999999999999" y1="57.50000000000105" y2="57.00000000000105" stroke="red" stroke-width="5"/>
<line x1="327.999999999999" x2="328.499999999999" y1="57.00000000000105" y2="56.50000000000102" stroke="red" stroke-width="5"/>
<line x1="328.499999999999" x2="328.999999999999" y1="56.50000000000102" y2="56.00000000000102" stroke="red" stroke-width="5"/>
<line x1="328.999999999999" x2="329.499999999999" y1="56.00000000000102" y2="55.500000000000995" stroke="red" stroke-width="5"/>
<line x1="329.499999999999" x2="329.999999999999" y1="55.500000000000995" y2="55.00000000000102" stroke="red" stroke-width="5"/>
<line x1="329.999999999999" x2="330.499999999999" y1="55.000000000000995" y2="54.50000000000102" stroke="red" stroke-width="5"/>
<line x1="330.49999999999903" x2="330.99999999999903" y1="54.500000000000966" y2="54.000000000000966" stroke="red" stroke-width="5"/>
<line x1="330.99999999999903" x2="331.49999999999903" y1="54.000000000000966" y2="53.500000000000966" stroke="red" stroke-width="5"/>
<line x1="331.49999999999903" x2="331.99999999999903" y1="53.500000000000966" y2="53.000000000000995" stroke="red" stroke-width="5"/>
<line x1="337.9999999999992" x2="338.4999999999992" y1="47.000000000000796" y2="46.500000000000796" stroke="red" stroke-width="5"/>
<line x1="338.4999999999992" x2="338.9999999999992" y1="46.500000000000796" y2="46.000000000000796" stroke="red" stroke-width="5"/>
<line x1="338.9999999999992" x2="339.4999999999992" y1="46.00000000000077" y2="45.500000000000796" stroke="red" stroke-width="5"/>
<line x1="339.4999999999992" x2="339.9999999999992" y1="45.50000000000077" y2="45.000000000000796" stroke="red" stroke-width="5"/>
<line x1="339.99999999999926" x2="340.49999999999926" y1="45.00000000000074" y2="44.50000000000074" stroke="red" stroke-width="5"/>
<line x1="340.49999999999926" x2="340.99999999999926" y1="44.50000000000074" y2="44.00000000000071" stroke="red" stroke-width="5"/>
<line x1="340.9999999999993" x2="341.4999999999993" y1="44.00000000000071" y2="43.500000000000654" stroke="red" stroke-width="5"/>
<line x1="341.4999999999993" x2="341.9999999999993" y1="43.50000000000071" y2="43.00000000000068" stroke="red" stroke-width="5"/>
<line x1="341.9999999999993" x2="342.4999999999993" y1="43.00000000000068" y2="42.50000000000068" stroke="red" stroke-width="5"/>
<line x1="342.4999999999993" x2="342.9999999999993" y1="42.50000000000068" y2="42.00000000000068" stroke="red" stroke-width="5"/>
<line x1="342.9999999999993" x2="343.4999999999993" y1="42.00000000000068" y2="41.50000000000071" stroke="red" stroke-width="5"/>
<line x1="343.4999999999993" x2="343.9999999999993" y1="41.500000000000654" y2="41.00000000000068" stroke="red" stroke-width="5"/>
<line x1="349.99999999999955" x2="350.49999999999955" y1="35.00000000000048" y2="34.500000000000455" stroke="red" stroke-width="5"/>
<line x1="350.49999999999955" x2="350.99999999999955" y1="34.50000000000048" y2="34.00000000000048" stroke="red" stroke-width="5"/>
<line x1="350.99999999999955" x2="351.49999999999955" y1="34.00000000000048" y2="33.500000000000455" stroke="red" stroke-width="5"/>
<line x1="351.49999999999955" x2="351.99999999999955" y1="33.500000000000455" y2="33.000000000000455" stroke="red" stroke-width="5"/>
<line x1="351.99999999999955" x2="352.49999999999955" y1="33.000000000000455" y2="32.50000000000048" stroke="red" stroke-width="5"/>
<line x1="352.49999999999955" x2="352.99999999999955" y1="32.500000000000426" y2="32.000000000000455" stroke="red" stroke-width="5"/>
<line x1="352.99999999999955" x2="353.49999999999955" y1="32.000000000000426" y2="31.500000000000455" stroke="red" stroke-width="5"/>
<line x1="353.4999999999996" x2="353.9999999999996" y1="31.500000000000398" y2="31.000000000000398" stroke="red" stroke-width="5"/>
<line x1="353.9999999999996" x2="354.4999999999996" y1="31.000000000000398" y2="30.500000000000398" stroke="red" stroke-width="5"/>
<line x1="354.4999999999996" x2="354.9999999999996" y1="30.500000000000398" y2="30.000000000000398" stroke="red" stroke-width="5"/>
<line x1="354.99999999999966" x2="355.49999999999966" y1="30.00000000000037" y2="29.50000000000037" stroke="red" stroke-width="5"/>
<line x1="355.49999999999966" x2="355.99999999999966" y1="29.50000000000037" y2="29.00000000000034" stroke="red" stroke-width="5"/>
<line x1="361.9999999999998" x2="362.4999999999998" y1="23.0000000000002" y2="22.500000000000227" stroke="red" stroke-width="5"/>
<line x1="362.49999999999983" x2="362.99999999999983" y1="22.50000000000017" y2="22.00000000000017" stroke="red" stroke-width="5"/>
<line x1="362.99999999999983" x2="363.49999999999983" y1="22.00000000000017" y2="21.50000000000017" stroke="red" stroke-width="5"/>
<line x1="363.49999999999983" x2="363.99999999999983" y1="21.50000000000017" y2="21.0000000000002" stroke="red" stroke-width="5"/>
<line x1="363.9999999999999" x2="364.4999999999999" y1="21.000000000000142" y2="20.500000000000085" stroke="red" stroke-width="5"/>
<line x1="364.4999999999999" x2="364.9999999999999" y1="20.500000000000142" y2="20.000000000000114" stroke="red" stroke-width="5"/>
<line x1="364.9999999999999" x2="365.4999999999999" y1="20.000000000000114" y2="19.500000000000114" stroke="red" stroke-width="5"/>
<line x1="365.4999999999999" x2="365.9999999999999" y1="19.500000000000114" y2="19.000000000000085" stroke="red" stroke-width="5"/>
<line x1="365.9999999999999" x2="366.4999999999999" y1="19.000000000000085" y2="18.500000000000114" stroke="red" stroke-width="5"/>
<line x1="366.4999999999999" x2="366.9999999999999" y1="18.500000000000085" y2="18.000000000000114" stroke="red" stroke-width="5"/>
<line x1="366.9999999999999" x2="367.4999999999999" y1="18.000000000000085" y2="17.500000000000114" stroke="red" stroke-width="5"/>
<line x1="367.49999999999994" x2="367.99999999999994" y1="17.500000000000057" y2="17.000000000000057" stroke="red" stroke-width="5"/>
<line x1="374.0000000000001" x2="374.5000000000001" y1="10.999999999999886" y2="10.499999999999886" stroke="red" stroke-width="5"/>
<line x1="374.5000000000001" x2="375.0000000000001" y1="10.499999999999886" y2="9.999999999999886" stroke="red" stroke-width="5"/>
<line x1="375.0000000000001" x2="375.5000000000001" y1="9.999999999999886" y2="9.499999999999915" stroke="red" stroke-width="5"/>
<line x1="375.5000000000001" x2="376.0000000000001" y1="9.499999999999858" y2="8.999999999999886" stroke="red" stroke-width="5"/>
<line x1="376.0000000000001" x2="376.5000000000001" y1="8.999999999999858" y2="8.499999999999886" stroke="red" stroke-width="5"/>
<line x1="376.50000000000017" x2="377.00000000000017" y1="8.49999999999983" y2="7.9999999999998295" stroke="red" stroke-width="5"/>
<line x1="377.00000000000017" x2="377.50000000000017" y1="7.9999999999998295" y2="7.499999999999801" stroke="red" stroke-width="5"/>
<line x1="377.5000000000002" x2="378.0000000000002" y1="7.499999999999801" y2="6.999999999999773" stroke="red" stroke-width="5"/>
<line x1="378.0000000000002" x2="378.5000000000002" y1="6.999999999999801" y2="6.499999999999773" stroke="red" stroke-width="5"/>
<line x1="378.5000000000002" x2="379.0000000000002" y1="6.499999999999773" y2="5.999999999999773" stroke="red" stroke-width="5"/>
<line x1="379.0000000000002" x2="379.5000000000002" y1="5.999999999999773" y2="5.499999999999773" stroke="red" stroke-width="5"/>
<line x1="379.5000000000002" x2="380.0000000000002" y1="5.499999999999773" y2="4.999999999999801" stroke="red" stroke-width="5"/>
<line x1="386.0000000000004" x2="386.5000000000004" y1="-1.000000000000398" y2="-1.500000000000398" stroke="red" stroke-width="5"/>
<line x1="386.5000000000004" x2="387.0000000000004" y1="-1.500000000000398" y2="-2.000000000000398" stroke="red" stroke-width="5"/>
<line x1="387.00000000000045" x2="387.50000000000045" y1="-2.0000000000004263" y2="-2.5000000000004263" stroke="red" stroke-width="5"/>
<line x1="387.50000000000045" x2="388.00000000000045" y1="-2.5000000000004263" y2="-3.0000000000004547" stroke="red" stroke-width="5"/>
<line x1="388.00000000000045" x2="388.50000000000045" y1="-3.0000000000004547" y2="-3.5000000000004547" stroke="red" stroke-width="5"/>
<line x1="388.50000000000045" x2="389.00000000000045" y1="-3.5000000000004547" y2="-4.000000000000483" stroke="red" stroke-width="5"/>
<line x1="389.00000000000045" x2="389.50000000000045" y1="-4.000000000000483" y2="-4.500000000000455" stroke="red" stroke-width="5"/>
<line x1="389.50000000000045" x2="390.00000000000045" y1="-4.500000000000483" y2="-5.000000000000455" stroke="red" stroke-width="5"/>
<line x1="390.0000000000005" x2="390.5000000000005" y1="-5.000000000000512" y2="-5.500000000000512" stroke="red" stroke-width="5"/>
<line x1="390.5000000000005" x2="391.0000000000005" y1="-5.500000000000512" y2="-6.000000000000512" stroke="red" stroke-width="5"/>
<line x1="391.0000000000005" x2="391.5000000000005" y1="-6.000000000000512" y2="-6.500000000000512" stroke="red" stroke-width="5"/>
<line x1="391.5000000000005" x2="392.0000000000005" y1="-6.500000000000512" y2="-7.000000000000512" stroke="red" stroke-width="5"/>
<line x1="398.0000000000007" x2="398.5000000000007" y1="-13.000000000000682" y2="-13.500000000000682" stroke="red" stroke-width="5"/>
<line x1="398.5000000000007" x2="399.0000000000007" y1="-13.500000000000682" y2="-14.000000000000682" stroke="red" stroke-width="5"/>
<line x1="399.00000000000074" x2="399.50000000000074" y1="-14.000000000000739" y2="-14.500000000000739" stroke="red" stroke-width="5"/>
<line x1="399.50000000000074" x2="400.00000000000074" y1="-14.500000000000739" y2="-15.000000000000739" stroke="red" stroke-width="5"/>
<line x1="400.00000000000074" x2="400.50000000000074" y1="-15.000000000000739" y2="-15.500000000000739" stroke="red" stroke-width="5"/>
<line x1="400.50000000000074" x2="401.00000000000074" y1="-15.500000000000739" y2="-16.00000000000074" stroke="red" stroke-width="5"/>
<line x1="401.0000000000008" x2="401.5000000000008" y1="-16.000000000000796" y2="-16.500000000000796" stroke="red" stroke-width="5"/>
<line x1="401.5000000000008" x2="402.0000000000008" y1="-16.500000000000796" y2="-17.000000000000796" stroke="red" stroke-width="5"/>
<line x1="402.0000000000008" x2="402.5000000000008" y1="-17.000000000000796" y2="-17.500000000000796" stroke="red" stroke-width="5"/>
<line x1="402.5000000000008" x2="403.0000000000008" y1="-17.500000000000796" y2="-18.000000000000796" stroke="red" stroke-width="5"/>
<line x1="403.0000000000008" x2="403.5000000000008" y1="-18.000000000000796" y2="-18.500000000000796" stroke="red" stroke-width="5"/>
<line x1="403.50000000000085" x2="404.00000000000085" y1="-18.500000000000853" y2="-19.000000000000853" stroke="red" stroke-width="5"/>
<line x1="410.000000000001" x2="410.500000000001" y1="-25.000000000001023" y2="-25.500000000001023" stroke="red" stroke-width="5"/>
<line x1="410.500000000001" x2="411.000000000001" y1="-25.500000000001023" y2="-26.000000000001023" stroke="red" stroke-width="5"/>
<line x1="411.000000000001" x2="411.500000000001" y1="-26.000000000001023" y2="-26.500000000001023" stroke="red" stroke-width="5"/>
<line x1="411.500000000001" x2="412.000000000001" y1="-26.500000000001023" y2="-27.000000000001023" stroke="red" stroke-width="5"/>
<line x1="412.000000000001" x2="412.500000000001" y1="-27.000000000001023" y2="-27.500000000001023" stroke="red" stroke-width="5"/>
<line x1="412.5000000000011" x2="413.0000000000011" y1="-27.50000000000108" y2="-28.00000000000108" stroke="red" stroke-width="5"/>
<line x1="413.0000000000011" x2="413.5000000000011" y1="-28.00000000000108" y2="-28.50000000000108" stroke="red" stroke-width="5"/>
<line x1="413.5000000000011" x2="414.0000000000011" y1="-28.50000000000108" y2="-29.00000000000108" stroke="red" stroke-width="5"/>
<line x1="414.0000000000011" x2="414.5000000000011" y1="-29.00000000000108" y2="-29.50000000000108" stroke="red" stroke-width="5"/>
<line x1="414.50000000000114" x2="415.00000000000114" y1="-29.500000000001137" y2="-30.000000000001137" stroke="red" stroke-width="5"/>
<line x1="415.00000000000114" x2="415.50000000000114" y1="-30.000000000001137" y2="-30.500000000001137" stroke="red" stroke-width="5"/>
<line x1="415.50000000000114" x2="416.00000000000114" y1="-30.500000000001137" y2="-31.000000000001137" stroke="red" stroke-width="5"/>
<line x1="422.0000000000013" x2="422.5000000000013" y1="-37.00000000000131" y2="-37.50000000000131" stroke="red" stroke-width="5"/>
<line x1="422.5000000000013" x2="423.0000000000013" y1="-37.50000000000131" y2="-38.00000000000131" stroke="red" stroke-width="5"/>
<line x1="423.0000000000013" x2="423.5000000000013" y1="-38.00000000000131" y2="-38.50000000000131" stroke="red" stroke-width="5"/>
<line x1="423.5000000000013" x2="424.0000000000013" y1="-38.50000000000131" y2="-39.00000000000131" stroke="red" stroke-width="5"/>
<line x1="424.00000000000136" x2="424.50000000000136" y1="-39.000000000001364" y2="-39.500000000001364" stroke="red" stroke-width="5"/>
<line x1="424.50000000000136" x2="425.00000000000136" y1="-39.500000000001364" y2="-40.000000000001364" stroke="red" stroke-width="5"/>
<line x1="425.00000000000136" x2="425.50000000000136" y1="-40.000000000001364" y2="-40.500000000001364" stroke="red" stroke-width="5"/>
<line x1="425.50000000000136" x2="426.00000000000136" y1="-40.500000000001364" y2="-41.000000000001364" stroke="red" stroke-width="5"/>
<line x1="426.0000000000014" x2="426.5000000000014" y1="-41.00000000000142" y2="-41.50000000000142" stroke="red" stroke-width="5"/>
<line x1="426.5000000000014" x2="427.0000000000014" y1="-41.50000000000142" y2="-42.00000000000142" stroke="red" stroke-width="5"/>
<line x1="427.0000000000014" x2="427.5000000000014" y1="-42.00000000000142" y2="-42.50000000000142" stroke="red" stroke-width="5"/>
<line x1="427.5000000000014" x2="428.0000000000014" y1="-42.50000000000142" y2="-43.00000000000142" stroke="red" stroke-width="5"/>
<line x1="434.0000000000016" x2="434.5000000000016" y1="-49.00000000000159" y2="-49.50000000000159" stroke="red" stroke-width="5"/>
<line x1="434.5000000000016" x2="435.0000000000016" y1="-49.50000000000159" y2="-50.00000000000159" stroke="red" stroke-width="5"/>
<line x1="435.0000000000016" x2="435.5000000000016" y1="-50.00000000000159" y2="-50.50000000000159" stroke="red" stroke-width="5"/>
<line x1="435.50000000000165" x2="436.00000000000165" y1="-50.50000000000165" y2="-51.00000000000165" stroke="red" stroke-width="5"/>
<line x1="436.00000000000165" x2="436.50000000000165" y1="-51.00000000000165" y2="-51.50000000000165" stroke="red" stroke-width="5"/>
<line x1="436.50000000000165" x2="437.00000000000165" y1="-51.50000000000165" y2="-52.00000000000165" stroke="red" stroke-width="5"/>
<line x1="437.00000000000165" x2="437.50000000000165" y1="-52.00000000000165" y2="-52.50000000000165" stroke="red" stroke-width="5"/>
<line x1="437.5000000000017" x2="438.0000000000017" y1="-52.500000000001705" y2="-53.000000000001705" stroke="red" stroke-width="5"/>
<line x1="438.0000000000017" x2="438.5000000000017" y1="-53.000000000001705" y2="-53.500000000001705" stroke="red" stroke-width="5"/>
<line x1="438.5000000000017" x2="439.0000000000017" y1="-53.500000000001705" y2="-54.000000000001705" stroke="red" stroke-width="5"/>
<line x1="439.0000000000017" x2="439.5000000000017" y1="-54.000000000001705" y2="-54.500000000001705" stroke="red" stroke-width="5"/>
<line x1="439.5000000000017" x2="440.0000000000017" y1="-54.500000000001705" y2="-55.000000000001705" stroke="red" stroke-width="5"/>
<line x1="446.0000000000019" x2="446.5000000000019" y1="-61.000000000001876" y2="-61.500000000001876" stroke="red" stroke-width="5"/>
<line x1="446.50000000000193" x2="447.00000000000193" y1="-61.50000000000193" y2="-62.00000000000193" stroke="red" stroke-width="5"/>
<line x1="447.00000000000193" x2="447.50000000000193" y1="-62.00000000000193" y2="-62.50000000000193" stroke="red" stroke-width="5"/>
<line x1="447.50000000000193" x2="448.00000000000193" y1="-62.50000000000193" y2="-63.00000000000193" stroke="red" stroke-width="5"/>
<line x1="448.00000000000193" x2="448.50000000000193" y1="-63.00000000000193" y2="-63.50000000000193" stroke="red" stroke-width="5"/>
<line x1="448.50000000000193" x2="449.00000000000193" y1="-63.50000000000193" y2="-64.00000000000193" stroke="red" stroke-width="5"/>
<line x1="449.000000000002" x2="449.500000000002" y1="-64.00000000000199" y2="-64.50000000000199" stroke="red" stroke-width="5"/>
<line x1="449.500000000002" x2="450.000000000002" y1="-64.50000000000199" y2="-65.00000000000199" stroke="red" stroke-width="5"/>
<line x1="450.000000000002" x2="450.500000000002" y1="-65.00000000000199" y2="-65.50000000000199" stroke="red" stroke-width="5"/>
<line x1="450.500000000002" x2="451.000000000002" y1="-65.50000000000199" y2="-66.00000000000199" stroke="red" stroke-width="5"/>
<line x1="451.000000000002" x2="451.500000000002" y1="-66.00000000000199" y2="-66.50000000000199" stroke="red" stroke-width="5"/>
<line x1="451.50000000000205" x2="452.00000000000205" y1="-66.50000000000205" y2="-67.00000000000205" stroke="red" stroke-width="5"/>
<line x1="458.0000000000022" x2="458.5000000000022" y1="-73.00000000000222" y2="-73.50000000000222" stroke="red" stroke-width="5"/>
<line x1="458.5000000000022" x2="459.0000000000022" y1="-73.50000000000222" y2="-74.00000000000222" stroke="red" stroke-width="5"/>
<line x1="459.0000000000022" x2="459.5000000000022" y1="-74.00000000000222" y2="-74.50000000000222" stroke="red" stroke-width="5"/>
<line x1="459.5000000000022" x2="460.0000000000022" y1="-74.50000000000222" y2="-75.00000000000222" stroke="red" stroke-width="5"/>
<line x1="460.0000000000022" x2="460.5000000000022" y1="-75.00000000000222" y2="-75.50000000000222" stroke="red" stroke-width="5"/>
<line x1="460.5000000000023" x2="461.0000000000023" y1="-75.50000000000227" y2="-76.00000000000227" stroke="red" stroke-width="5"/>
<line x1="461.0000000000023" x2="461.5000000000023" y1="-76.00000000000227" y2="-76.50000000000227" stroke="red" stroke-width="5"/>
<line x1="461.5000000000023" x2="462.0000000000023" y1="-76.50000000000227" y2="-77.00000000000227" stroke="red" stroke-width="5"/>
<line x1="462.0000000000023" x2="462.5000000000023" y1="-77.00000000000227" y2="-77.50000000000227" stroke="red" stroke-width="5"/>
<line x1="462.5000000000023" x2="463.0000000000023" y1="-77.50000000000227" y2="-78.00000000000227" stroke="red" stroke-width="5"/>
<line x1="463.00000000000233" x2="463.50000000000233" y1="-78.00000000000233" y2="-78.50000000000233" stroke="red" stroke-width="5"/>
<line x1="463.50000000000233" x2="464.00000000000233" y1="-78.50000000000233" y2="-79.00000000000233" stroke="red" stroke-width="5"/>
<line x1="470.0000000000025" x2="470.5000000000025" y1="-85.0000000000025" y2="-85.5000000000025" stroke="red" stroke-width="5"/>
<line x1="470.5000000000025" x2="471.0000000000025" y1="-85.5000000000025" y2="-86.0000000000025" stroke="red" stroke-width="5"/>
<line x1="471.0000000000025" x2="471.5000000000025" y1="-86.0000000000025" y2="-86.5000000000025" stroke="red" stroke-width="5"/>
<line x1="471.5000000000025" x2="472.0000000000025" y1="-86.5000000000025" y2="-87.0000000000025" stroke="red" stroke-width="5"/>
<line x1="472.00000000000256" x2="472.50000000000256" y1="-87.00000000000256" y2="-87.50000000000256" stroke="red" stroke-width="5"/>
<line x1="472.50000000000256" x2="473.00000000000256" y1="-87.50000000000256" y2="-88.00000000000256" stroke="red" stroke-width="5"/>
<line x1="473.00000000000256" x2="473.50000000000256" y1="-88.00000000000256" y2="-88.50000000000256" stroke="red" stroke-width="5"/>
<line x1="473.50000000000256" x2="474.00000000000256" y1="-88.50000000000256" y2="-89.00000000000256" stroke="red" stroke-width="5"/>
<line x1="474.0000000000026" x2="474.5000000000026" y1="-89.00000000000261" y2="-89.50000000000261" stroke="red" stroke-width="5"/>
<line x1="474.5000000000026" x2="475.0000000000026" y1="-89.50000000000261" y2="-90.00000000000261" stroke="red" stroke-width="5"/>
<line x1="475.0000000000026" x2="475.5000000000026" y1="-90.00000000000261" y2="-90.50000000000261" stroke="red" stroke-width="5"/>
<line x1="475.5000000000026" x2="476.0000000000026" y1="-90.50000000000261" y2="-91.00000000000261" stroke="red" stroke-width="5"/>
</svg>

